# xmcd
#
# Track frame offsets: 
#        150
#        16734
#        28999
#        46482
#        64243
#        75552
#        90653
#        112764
#        136946
#        152721
#        169290
#        188367
#
# Disc length: 2720 seconds
#
# Revision: 0
# Processed by: cddbd v1.5.2PL0 Copyright (c) Steve Scherf et al.
# Submitted via: ExactAudioCopy v0.95b4
#
DISCID=8d0a9e0c
DTITLE=The Pear Ratz - Holier-Than-Thou
DYEAR=2007
DGENRE=Country
TTITLE0=Senses
TTITLE1=Holier-Than-Thou
TTITLE2=Walk Softley On This Heart Of Mine
TTITLE3=Content
TTITLE4=Balinese
TTITLE5=Killin´ U2
TTITLE6=Dreadful Selfish Crime
TTITLE7=The Other You
TTITLE8=Right Or Wrong
TTITLE9=A Little Too Late
TTITLE10=Jesus Loves Bad Boys Like Me
TTITLE11=The Porch Swing Song
EXTD=
EXTT0=
EXTT1=
EXTT2=
EXTT3=
EXTT4=
EXTT5=
EXTT6=
EXTT7=
EXTT8=
EXTT9=
EXTT10=
EXTT11=
PLAYORDER=
